Coordinates
version=1
nRows=6
nColumns=63
inDegrees=yes

Units are S.I. units (second, meters, Newtons, ...)
If the header above contains a line with 'inDegrees', this indicates whether rotational values are in degrees (yes) or radians (no).

endheader
time	pelvis_tilt	pelvis_list	pelvis_rotation	pelvis_tx	pelvis_ty	pelvis_tz	hip_flexion_r	hip_adduction_r	hip_rotation_r	knee_angle_r	knee_angle_r_beta	ankle_angle_r	subtalar_angle_r	mtp_angle_r	hip_flexion_l	hip_adduction_l	hip_rotation_l	knee_angle_l	knee_angle_l_beta	ankle_angle_l	subtalar_angle_l	mtp_angle_l	L5_S1_Flex_Ext	L5_S1_Lat_Bending	L5_S1_axial_rotation	L4_L5_Flex_Ext	L4_L5_Lat_Bending	L4_L5_axial_rotation	L3_L4_Flex_Ext	L3_L4_Lat_Bending	L3_L4_axial_rotation	L2_L3_Flex_Ext	L2_L3_Lat_Bending	L2_L3_axial_rotation	L1_L2_Flex_Ext	L1_L2_Lat_Bending	L1_L2_axial_rotation	L1_T12_Flex_Ext	L1_T12_Lat_Bending	L1_T12_axial_rotation	Abs_r3	Abs_r2	Abs_r1	Abs_t1	Abs_t2	neck_flexion	neck_bending	neck_rotation	arm_flex_r	arm_add_r	arm_rot_r	elbow_flex_r	pro_sup_r	wrist_flex_r	wrist_dev_r	arm_flex_l	arm_add_l	arm_rot_l	elbow_flex_l	pro_sup_l	wrist_flex_l	wrist_dev_l
0.000000	5.365237	-4.074119	101.562283	0.127292	0.624622	0.850302	8.910006	1.010234	0.416361	4.218535	0.073627	22.175208	-9.262034	0.000000	13.065736	0.253955	5.224509	7.181623	0.125343	28.905589	4.153161	0.000000	0.247163	0.251743	-1.033766	0.459007	0.334818	-1.098376	0.406064	0.612088	-1.098376	0.282483	0.612088	-0.904545	0.229516	0.513354	-0.839935	0.141229	0.389950	-0.775324	1.765462	2.847766	-5.749496	0.000000	0.000000	24.838363	0.340133	3.508144	28.296751	-5.632072	92.454827	36.279583	50.224574	-2.210934	-6.589368	19.100826	-4.657753	67.151048	36.896107	75.115874	1.484795	1.234601
0.018868	5.124486	-4.054547	101.438820	0.127441	0.624458	0.850380	8.843460	0.660021	-2.361353	4.294903	0.074960	23.558683	-4.673612	0.000000	13.061252	0.466879	4.838954	7.379582	0.128798	28.957259	4.251365	0.000000	0.240068	0.224667	-1.071402	0.445830	0.298807	-1.138364	0.394408	0.546256	-1.138364	0.274374	0.546256	-0.937476	0.222927	0.458141	-0.870514	0.137175	0.348009	-0.803551	1.714781	2.541479	-5.958814	0.000000	0.000000	24.880975	0.621480	3.806495	28.569027	-5.293661	93.442105	36.062791	49.699854	-2.043799	-6.541119	18.803317	-4.916178	66.260504	37.269317	77.872732	1.416669	1.004857
0.037736	4.940640	-4.039026	101.394364	0.127482	0.624283	0.850606	8.799922	0.370641	-4.711537	4.370609	0.076282	24.698930	-0.881148	0.000000	13.095786	0.646720	4.600173	7.596099	0.132577	28.961064	4.298903	0.000000	0.233089	0.202928	-1.102238	0.432869	0.269894	-1.171128	0.382941	0.493399	-1.171128	0.266397	0.493399	-0.964458	0.216446	0.413810	-0.895569	0.133187	0.314335	-0.826679	1.664928	2.295560	-6.130318	0.000000	0.000000	24.919646	0.836033	3.946939	28.779886	-5.055634	94.126716	35.913919	49.209363	-1.920300	-6.490980	18.634342	-5.104883	65.605269	37.555412	79.721204	1.467030	0.993898
0.056604	4.808702	-4.027386	101.420234	0.127426	0.624100	0.850959	8.777301	0.137187	-6.666741	4.445045	0.077581	25.616245	2.180828	0.000000	13.164579	0.796045	4.494562	7.826806	0.136604	28.922505	4.299100	0.000000	0.226296	0.186139	-1.127139	0.420254	0.247565	-1.197585	0.371782	0.452579	-1.197585	0.258634	0.452579	-0.986246	0.210138	0.379575	-0.915800	0.129305	0.288329	-0.845354	1.616409	2.105642	-6.268807	0.000000	0.000000	24.954731	0.990654	3.949784	28.936017	-4.907562	94.542522	35.825706	48.753384	-1.836276	-6.440018	18.578648	-5.231032	65.158448	37.763175	80.768663	1.622521	1.172951
0.075472	4.723672	-4.019455	101.507749	0.127283	0.623911	0.851423	8.773504	-0.045252	-8.259513	4.517608	0.078847	26.330926	4.577782	0.000000	13.262871	0.917417	4.508513	8.067331	0.140801	28.847083	4.255281	0.000000	0.219761	0.173915	-1.146966	0.408118	0.231307	-1.218651	0.361045	0.422857	-1.218651	0.251164	0.422857	-1.003595	0.204070	0.354648	-0.931910	0.125571	0.269394	-0.860225	1.569728	1.967362	-6.379081	0.000000	0.000000	24.986588	1.092207	3.835338	29.044108	-4.839019	94.723385	35.790890	48.332200	-1.787568	-6.389302	18.620980	-5.301794	64.893144	37.901390	81.122481	1.869787	1.513241
0.094340	4.680552	-4.015063	101.648227	0.127065	0.623717	0.851978	8.786441	-0.181584	-9.522402	4.587690	0.080070	26.863269	6.375181	0.000000	13.385903	1.013401	4.628422	8.313304	0.145095	28.740298	4.170772	0.000000	0.213554	0.165870	-1.162583	0.396590	0.220607	-1.235245	0.350847	0.403296	-1.235245	0.244070	0.403296	-1.017260	0.198306	0.338242	-0.944599	0.122024	0.256933	-0.871937	1.525391	1.876354	-6.465939	0.000000	0.000000	25.015573	1.147554	3.623907	29.110849	-4.839577	94.703167	35.802209	47.946094	-1.770015	-6.339897	18.746082	-5.324334	64.782462	37.978843	80.890033	2.195469	1.985993
